<svg xmlns="http://www.w3.org/2000/svg" viewBox="0 0 43 32"><path d="M33.941 6.868c-2.674 4.107-3.163 7.911-2.988 10.112 10.901-.179 10.126 11.465 2.471 11.465-3.253 0-6.757-2.379-6.757-7.6 0-4.843 2.51-10.391 7.275-13.978zm-23.111 0c-2.674 4.107-3.163 7.911-2.989 10.112 10.901-.179 10.126 11.465 2.471 11.465-3.253 0-6.757-2.379-6.757-7.6 0-4.843 2.51-10.391 7.275-13.978zM40.889 0C30.03 2.144 23.111 11.705 23.111 20.844c0 7.058 4.953 11.155 10.313 11.155 4.649 0 9.243-3.195 9.243-8.851 0-4.606-3.359-8.427-7.761-9.147l-.054-.007c.385-3.563 3.85-8.731 7.787-10.215L40.89 0zM17.778 0C6.919 2.144 0 11.705 0 20.844c0 7.058 4.953 11.155 10.313 11.155 4.649 0 9.243-3.195 9.243-8.851 0-4.606-3.359-8.427-7.761-9.147l-.054-.007c.385-3.563 3.85-8.731 7.787-10.215z"></path></svg>